<svg xmlns="http://www.w3.org/2000/svg" viewBox="0 0 100 100">
  <defs>
    <linearGradient id="grad" x1="0%" y1="0%" x2="100%" y2="100%">
      <stop offset="0%" style="stop-color:#3b82f6;stop-opacity:1" />
      <stop offset="100%" style="stop-color:#1d4ed8;stop-opacity:1" />
    </linearGradient>
  </defs>

  <!-- Background circle -->
  <circle cx="50" cy="50" r="48" fill="url(#grad)"/>

  <!-- Office building icon -->
  <rect x="30" y="25" width="40" height="50" fill="white" rx="2"/>

  <!-- Windows -->
  <rect x="35" y="30" width="8" height="6" fill="#3b82f6" rx="1"/>
  <rect x="46" y="30" width="8" height="6" fill="#3b82f6" rx="1"/>
  <rect x="57" y="30" width="8" height="6" fill="#3b82f6" rx="1"/>

  <rect x="35" y="40" width="8" height="6" fill="#3b82f6" rx="1"/>
  <rect x="46" y="40" width="8" height="6" fill="#3b82f6" rx="1"/>
  <rect x="57" y="40" width="8" height="6" fill="#3b82f6" rx="1"/>

  <rect x="35" y="50" width="8" height="6" fill="#3b82f6" rx="1"/>
  <rect x="46" y="50" width="8" height="6" fill="#3b82f6" rx="1"/>
  <rect x="57" y="50" width="8" height="6" fill="#3b82f6" rx="1"/>

  <!-- Door -->
  <rect x="43" y="62" width="14" height="13" fill="#1d4ed8" rx="1"/>
</svg>
