<svg xmlns="http://www.w3.org/2000/svg" viewBox="0 0 900 500" width="900" height="500">
  <!-- Background -->
  <rect width="900" height="500" fill="#f6f9fc"/>

  <!-- Sidebar -->
  <rect width="220" height="500" fill="#1b1c1d"/>

  <!-- Storybook logo area -->
  <rect x="0" y="0" width="220" height="56" fill="#161617"/>
  <rect x="16" y="16" width="24" height="24" rx="4" fill="#ff4785"/>
  <text x="48" y="32" font-family="sans-serif" font-size="14" font-weight="600" fill="white">Storybook</text>
  <text x="48" y="46" font-family="sans-serif" font-size="10" fill="#666">7.6.21</text>

  <!-- Search bar -->
  <rect x="12" y="66" width="196" height="28" rx="4" fill="#2e2f30"/>
  <text x="28" y="84" font-family="sans-serif" font-size="11" fill="#666">🔍  Search stories...</text>

  <!-- Sidebar items -->
  <text x="12" y="118" font-family="sans-serif" font-size="10" font-weight="600" fill="#666" letter-spacing="1">ATOMS</text>
  <rect x="0" y="124" width="220" height="26" fill="#2e2f30"/>
  <text x="28" y="141" font-family="sans-serif" font-size="12" fill="white">▾ Button</text>
  <rect x="0" y="150" width="220" height="22" fill="#ff4785" opacity="0.15"/>
  <rect x="0" y="150" width="3" height="22" fill="#ff4785"/>
  <text x="40" y="165" font-family="sans-serif" font-size="11" fill="#ff4785">● Primary</text>
  <text x="40" y="186" font-family="sans-serif" font-size="11" fill="#888">  Secondary</text>
  <text x="40" y="207" font-family="sans-serif" font-size="11" fill="#888">  Danger</text>
  <text x="40" y="228" font-family="sans-serif" font-size="11" fill="#888">  Disabled</text>
  <text x="28" y="252" font-family="sans-serif" font-size="12" fill="#ccc">▸ Badge</text>
  <text x="28" y="273" font-family="sans-serif" font-size="12" fill="#ccc">▸ TextInput</text>
  <text x="28" y="294" font-family="sans-serif" font-size="12" fill="#ccc">▸ Select</text>
  <text x="12" y="322" font-family="sans-serif" font-size="10" font-weight="600" fill="#666" letter-spacing="1">MOLECULES</text>
  <text x="28" y="343" font-family="sans-serif" font-size="12" fill="#ccc">▸ Toast</text>
  <text x="28" y="364" font-family="sans-serif" font-size="12" fill="#ccc">▸ ConfirmDialog</text>
  <text x="28" y="385" font-family="sans-serif" font-size="12" fill="#ccc">▸ FormField</text>
  <text x="12" y="413" font-family="sans-serif" font-size="10" font-weight="600" fill="#666" letter-spacing="1">ORGANISMS</text>
  <text x="28" y="434" font-family="sans-serif" font-size="12" fill="#ccc">▸ DataTable</text>
  <text x="28" y="455" font-family="sans-serif" font-size="12" fill="#ccc">▸ EditableRowTable</text>
  <text x="28" y="476" font-family="sans-serif" font-size="12" fill="#ccc">▸ FilterToolbar</text>

  <!-- Main content area -->
  <!-- Top toolbar -->
  <rect x="220" y="0" width="680" height="44" fill="white" stroke="#e5e7eb" stroke-width="1"/>
  <text x="240" y="26" font-family="sans-serif" font-size="13" font-weight="600" fill="#333">Atoms / Button / Primary</text>
  <rect x="680" y="10" width="60" height="24" rx="4" fill="#f3f4f6"/>
  <text x="696" y="26" font-family="sans-serif" font-size="11" fill="#666">Canvas</text>
  <rect x="748" y="10" width="50" height="24" rx="4" fill="#f3f4f6"/>
  <text x="761" y="26" font-family="sans-serif" font-size="11" fill="#666">Docs</text>

  <!-- Canvas area -->
  <rect x="220" y="44" width="680" height="300" fill="#f9fafb"/>
  <!-- Checkerboard hint -->
  <rect x="220" y="44" width="680" height="300" fill="url(#checker)" opacity="0.3"/>

  <!-- Component preview - Button -->
  <rect x="400" y="160" width="100" height="36" rx="6" fill="#3b82f6"/>
  <text x="420" y="183" font-family="sans-serif" font-size="13" font-weight="600" fill="white">Primary</text>

  <!-- Controls panel -->
  <rect x="220" y="344" width="680" height="156" fill="white" stroke="#e5e7eb" stroke-width="1"/>
  <rect x="220" y="344" width="680" height="36" fill="#f9fafb" stroke="#e5e7eb" stroke-width="1"/>
  <text x="240" y="366" font-family="sans-serif" font-size="12" font-weight="600" fill="#333">Controls</text>
  <text x="380" y="366" font-family="sans-serif" font-size="12" fill="#888">Actions</text>
  <text x="460" y="366" font-family="sans-serif" font-size="12" fill="#888">Accessibility</text>

  <!-- Control rows -->
  <text x="240" y="400" font-family="sans-serif" font-size="11" fill="#666">variant</text>
  <rect x="340" y="386" width="120" height="24" rx="4" fill="#f3f4f6" stroke="#d1d5db" stroke-width="1"/>
  <text x="354" y="402" font-family="sans-serif" font-size="11" fill="#333">primary ▾</text>

  <text x="240" y="428" font-family="sans-serif" font-size="11" fill="#666">size</text>
  <rect x="340" y="414" width="120" height="24" rx="4" fill="#f3f4f6" stroke="#d1d5db" stroke-width="1"/>
  <text x="354" y="430" font-family="sans-serif" font-size="11" fill="#333">medium ▾</text>

  <text x="240" y="456" font-family="sans-serif" font-size="11" fill="#666">disabled</text>
  <rect x="340" y="442" width="36" height="20" rx="10" fill="#d1d5db"/>
  <circle cx="350" cy="452" r="8" fill="white"/>

  <text x="240" y="484" font-family="sans-serif" font-size="11" fill="#666">loading</text>
  <rect x="340" y="470" width="36" height="20" rx="10" fill="#d1d5db"/>
  <circle cx="350" cy="480" r="8" fill="white"/>
</svg>
